<svg xmlns:xlink="http://www.w3.org/1999/xlink" version="1.1" class="highcharts-root" style="font-family: &quot;Noto Sans Display&quot;, Helvetica, sans-serif; font-size: 1rem;" xmlns="http://www.w3.org/2000/svg" width="600" height="400" viewBox="0 0 600 400" aria-label="Interactive chart" aria-hidden="false"><desc aria-hidden="true">Created with Highcharts 12.1.2</desc><defs aria-hidden="true"><filter id="highcharts-drop-shadow-3"><feDropShadow dx="1" dy="1" flood-color="#000000" flood-opacity="0.75" stdDeviation="2.5"></feDropShadow></filter><clipPath id="highcharts-wqmkq5y-176-"><rect x="0" y="0" width="522" height="220" fill="none"></rect></clipPath><clipPath id="highcharts-wqmkq5y-177-"><rect x="0" y="68" width="600" height="220" fill="none"></rect></clipPath></defs><rect fill="#ffffff" class="highcharts-background" filter="none" x="0" y="0" width="600" height="400" rx="0" ry="0" aria-hidden="true"></rect><rect fill="none" class="highcharts-plot-background" x="0" y="68" width="600" height="220" filter="none" aria-hidden="true"></rect><g class="highcharts-pane-group" data-z-index="0" aria-hidden="true"></g><g class="highcharts-grid highcharts-xaxis-grid" data-z-index="1" aria-hidden="true"><path fill="none" stroke="#c2cbd6" stroke-width="0" stroke-dasharray="none" data-z-index="1" class="highcharts-grid-line" d="M 60.5 68 L 60.5 288" opacity="1"></path><path fill="none" stroke="#c2cbd6" stroke-width="0" stroke-dasharray="none" data-z-index="1" class="highcharts-grid-line" d="M 102.5 68 L 102.5 288" opacity="1"></path><path fill="none" stroke="#c2cbd6" stroke-width="0" stroke-dasharray="none" data-z-index="1" class="highcharts-grid-line" d="M 143.5 68 L 143.5 288" opacity="1"></path><path fill="none" stroke="#c2cbd6" stroke-width="0" stroke-dasharray="none" data-z-index="1" class="highcharts-grid-line" d="M 184.5 68 L 184.5 288" opacity="1"></path><path fill="none" stroke="#c2cbd6" stroke-width="0" stroke-dasharray="none" data-z-index="1" class="highcharts-grid-line" d="M 225.5 68 L 225.5 288" opacity="1"></path><path fill="none" stroke="#c2cbd6" stroke-width="0" stroke-dasharray="none" data-z-index="1" class="highcharts-grid-line" d="M 266.5 68 L 266.5 288" opacity="1"></path><path fill="none" stroke="#c2cbd6" stroke-width="0" stroke-dasharray="none" data-z-index="1" class="highcharts-grid-line" d="M 308.5 68 L 308.5 288" opacity="1"></path><path fill="none" stroke="#c2cbd6" stroke-width="0" stroke-dasharray="none" data-z-index="1" class="highcharts-grid-line" d="M 349.5 68 L 349.5 288" opacity="1"></path><path fill="none" stroke="#c2cbd6" stroke-width="0" stroke-dasharray="none" data-z-index="1" class="highcharts-grid-line" d="M 390.5 68 L 390.5 288" opacity="1"></path><path fill="none" stroke="#c2cbd6" stroke-width="0" stroke-dasharray="none" data-z-index="1" class="highcharts-grid-line" d="M 431.5 68 L 431.5 288" opacity="1"></path><path fill="none" stroke="#c2cbd6" stroke-width="0" stroke-dasharray="none" data-z-index="1" class="highcharts-grid-line" d="M 472.5 68 L 472.5 288" opacity="1"></path><path fill="none" stroke="#c2cbd6" stroke-width="0" stroke-dasharray="none" data-z-index="1" class="highcharts-grid-line" d="M 514.5 68 L 514.5 288" opacity="1"></path><path fill="none" stroke="#c2cbd6" stroke-width="0" stroke-dasharray="none" data-z-index="1" class="highcharts-grid-line" d="M 555.5 68 L 555.5 288" opacity="1"></path></g><g class="highcharts-grid highcharts-yaxis-grid" data-z-index="1" aria-hidden="true"><path fill="none" stroke="#c2cbd6" stroke-width="1" stroke-dasharray="none" data-z-index="1" class="highcharts-grid-line" d="M 0 288.5 L 600 288.5" opacity="1"></path><path fill="none" stroke="#c2cbd6" stroke-width="1" stroke-dasharray="none" data-z-index="1" class="highcharts-grid-line" d="M 0 233.5 L 600 233.5" opacity="1"></path><path fill="none" stroke="#c2cbd6" stroke-width="1" stroke-dasharray="none" data-z-index="1" class="highcharts-grid-line" d="M 0 178.5 L 600 178.5" opacity="1"></path><path fill="none" stroke="#c2cbd6" stroke-width="1" stroke-dasharray="none" data-z-index="1" class="highcharts-grid-line" d="M 0 123.5 L 600 123.5" opacity="1"></path><path fill="none" stroke="#c2cbd6" stroke-width="1" stroke-dasharray="none" data-z-index="1" class="highcharts-grid-line" d="M 0 68.5 L 600 68.5" opacity="1"></path></g><rect fill="none" class="highcharts-plot-border" data-z-index="1" stroke="#cccccc" stroke-width="0" x="0" y="68" width="600" height="220" aria-hidden="true"></rect><g class="highcharts-axis highcharts-xaxis" data-z-index="2" aria-hidden="true"><path fill="none" class="highcharts-axis-line" stroke="transparent" stroke-width="1" data-z-index="7" d="M 54 288.5 L 576 288.5"></path></g><g class="highcharts-axis highcharts-yaxis" data-z-index="2" aria-hidden="true"><path fill="none" class="highcharts-axis-line" stroke="#c2cbd6" stroke-width="0" data-z-index="7" d="M 0 68 L 0 288"></path></g><g class="highcharts-series-group" data-z-index="3" filter="none" aria-hidden="false"><g class="highcharts-series highcharts-series-0 highcharts-column-series" data-z-index="0.1" opacity="1" transform="translate(54,68) scale(1 1)" clip-path="url(#highcharts-wqmkq5y-176-)" aria-hidden="false"><path fill="#000533" d="M 2.15 56.15 L 11.15 56.15 A 0 0 0 0 1 11.15 56.15 L 11.15 220.15 A 0 0 0 0 1 11.15 220.15 L 2.15 220.15 A 0 0 0 0 1 2.15 220.15 L 2.15 56.15 A 0 0 0 0 1 2.15 56.15 Z" stroke="#ffffff" stroke-width="0.3" opacity="1" filter="none" class="highcharts-point" tabindex="-1" role="img" aria-label="Ireland, 149.31394657417. Annual." style="outline: currentcolor;"></path><path fill="#000533" d="M 16.15 74.15 L 25.15 74.15 A 0 0 0 0 1 25.15 74.15 L 25.15 220.15 A 0 0 0 0 1 25.15 220.15 L 16.15 220.15 A 0 0 0 0 1 16.15 220.15 L 16.15 74.15 A 0 0 0 0 1 16.15 74.15 Z" stroke="#ffffff" stroke-width="0.3" opacity="1" filter="none" class="highcharts-point" tabindex="-1" role="img" aria-label="Norway, 132.277085659747. Annual." style="outline: currentcolor;"></path><path fill="#000533" d="M 30.15 81.15 L 39.15 81.15 A 0 0 0 0 1 39.15 81.15 L 39.15 220.15 A 0 0 0 0 1 39.15 220.15 L 30.15 220.15 A 0 0 0 0 1 30.15 220.15 L 30.15 81.15 A 0 0 0 0 1 30.15 81.15 Z" stroke="#ffffff" stroke-width="0.3" opacity="1" filter="none" class="highcharts-point" tabindex="-1" role="img" aria-label="Luxembourg, 126.453606448175. Annual." style="outline: currentcolor;"></path><path fill="#000533" d="M 44.15 109.15 L 53.15 109.15 A 0 0 0 0 1 53.15 109.15 L 53.15 220.15 A 0 0 0 0 1 53.15 220.15 L 44.15 220.15 A 0 0 0 0 1 44.15 220.15 L 44.15 109.15 A 0 0 0 0 1 44.15 109.15 Z" stroke="#ffffff" stroke-width="0.3" opacity="1" filter="none" class="highcharts-point" tabindex="-1" role="img" aria-label="Belgium, 100.328280540086. Annual." style="outline: currentcolor;"></path><path fill="#000533" d="M 57.15 111.15 L 66.15 111.15 A 0 0 0 0 1 66.15 111.15 L 66.15 220.15 A 0 0 0 0 1 66.15 220.15 L 57.15 220.15 A 0 0 0 0 1 57.15 220.15 L 57.15 111.15 A 0 0 0 0 1 57.15 111.15 Z" stroke="#ffffff" stroke-width="0.3" opacity="1" filter="none" class="highcharts-point" tabindex="-1" role="img" aria-label="Switzerland, 99.2380932583783. Annual." style="outline: currentcolor;"></path><path fill="#000533" d="M 71.15 111.15 L 80.15 111.15 A 0 0 0 0 1 80.15 111.15 L 80.15 220.15 A 0 0 0 0 1 80.15 220.15 L 71.15 220.15 A 0 0 0 0 1 71.15 220.15 L 71.15 111.15 A 0 0 0 0 1 71.15 111.15 Z" stroke="#ffffff" stroke-width="0.3" opacity="1" filter="none" class="highcharts-point" tabindex="-1" role="img" aria-label="Denmark, 99.2313045642778. Annual." style="outline: currentcolor;"></path><path fill="#000533" d="M 85.15 113.15 L 94.15 113.15 A 0 0 0 0 1 94.15 113.15 L 94.15 220.15 A 0 0 0 0 1 94.15 220.15 L 85.15 220.15 A 0 0 0 0 1 85.15 220.15 L 85.15 113.15 A 0 0 0 0 1 85.15 113.15 Z" stroke="#ffffff" stroke-width="0.3" opacity="1" filter="none" class="highcharts-point" tabindex="-1" role="img" aria-label="United States, 97.0466946503153. Annual." style="outline: currentcolor;"></path><path fill="#000533" d="M 98.15 115.15 L 107.15 115.15 A 0 0 0 0 1 107.15 115.15 L 107.15 220.15 A 0 0 0 0 1 107.15 220.15 L 98.15 220.15 A 0 0 0 0 1 98.15 220.15 L 98.15 115.15 A 0 0 0 0 1 98.15 115.15 Z" stroke="#ffffff" stroke-width="0.3" opacity="1" filter="none" class="highcharts-point" tabindex="-1" role="img" aria-label="Iceland, 95.1406978578414. Annual." style="outline: currentcolor;"></path><path fill="#000533" d="M 112.15 115.15 L 121.15 115.15 A 0 0 0 0 1 121.15 115.15 L 121.15 220.15 A 0 0 0 0 1 121.15 220.15 L 112.15 220.15 A 0 0 0 0 1 112.15 220.15 L 112.15 115.15 A 0 0 0 0 1 112.15 115.15 Z" stroke="#ffffff" stroke-width="0.3" opacity="1" filter="none" class="highcharts-point" tabindex="-1" role="img" aria-label="Austria, 94.9608719002306. Annual." style="outline: currentcolor;"></path><path fill="#000533" d="M 126.15 116.15 L 135.15 116.15 A 0 0 0 0 1 135.15 116.15 L 135.15 220.15 A 0 0 0 0 1 135.15 220.15 L 126.15 220.15 A 0 0 0 0 1 126.15 220.15 L 126.15 116.15 A 0 0 0 0 1 126.15 116.15 Z" stroke="#ffffff" stroke-width="0.3" opacity="1" filter="none" class="highcharts-point" tabindex="-1" role="img" aria-label="Netherlands, 94.3940073229445. Annual." style="outline: currentcolor;"></path><path fill="#000533" d="M 140.15 117.15 L 149.15 117.15 A 0 0 0 0 1 149.15 117.15 L 149.15 220.15 A 0 0 0 0 1 149.15 220.15 L 140.15 220.15 A 0 0 0 0 1 140.15 220.15 L 140.15 117.15 A 0 0 0 0 1 140.15 117.15 Z" stroke="#ffffff" stroke-width="0.3" opacity="1" filter="none" class="highcharts-point" tabindex="-1" role="img" aria-label="Germany, 93.8105800873411. Annual." style="outline: currentcolor;"></path><path fill="#000533" d="M 153.15 122.15 L 162.15 122.15 A 0 0 0 0 1 162.15 122.15 L 162.15 220.15 A 0 0 0 0 1 162.15 220.15 L 153.15 220.15 A 0 0 0 0 1 153.15 220.15 L 153.15 122.15 A 0 0 0 0 1 153.15 122.15 Z" stroke="#ffffff" stroke-width="0.3" opacity="1" filter="none" class="highcharts-point" tabindex="-1" role="img" aria-label="Sweden, 89.2230659271295. Annual." style="outline: currentcolor;"></path><path fill="#000533" d="M 167.15 123.15 L 176.15 123.15 A 0 0 0 0 1 176.15 123.15 L 176.15 220.15 A 0 0 0 0 1 176.15 220.15 L 167.15 220.15 A 0 0 0 0 1 167.15 220.15 L 167.15 123.15 A 0 0 0 0 1 167.15 123.15 Z" stroke="#ffffff" stroke-width="0.3" opacity="1" filter="none" class="highcharts-point" tabindex="-1" role="img" aria-label="France, 88.1484983920342. Annual." style="outline: currentcolor;"></path><path fill="#000533" d="M 181.15 128.15 L 190.15 128.15 A 0 0 0 0 1 190.15 128.15 L 190.15 220.15 A 0 0 0 0 1 190.15 220.15 L 181.15 220.15 A 0 0 0 0 1 181.15 220.15 L 181.15 128.15 A 0 0 0 0 1 181.15 128.15 Z" stroke="#ffffff" stroke-width="0.3" opacity="1" filter="none" class="highcharts-point" tabindex="-1" role="img" aria-label="Australia, 83.6586874513012. Annual." style="outline: currentcolor;"></path><path fill="#000533" d="M 195.15 129.15 L 204.15 129.15 A 0 0 0 0 1 204.15 129.15 L 204.15 220.15 A 0 0 0 0 1 204.15 220.15 L 195.15 220.15 A 0 0 0 0 1 195.15 220.15 L 195.15 129.15 A 0 0 0 0 1 195.15 129.15 Z" stroke="#ffffff" stroke-width="0.3" opacity="1" filter="none" class="highcharts-point" tabindex="-1" role="img" aria-label="Finland, 82.9647430270653. Annual." style="outline: currentcolor;"></path><path fill="#000533" d="M 208.15 134.15 L 217.15 134.15 A 0 0 0 0 1 217.15 134.15 L 217.15 220.15 A 0 0 0 0 1 217.15 220.15 L 208.15 220.15 A 0 0 0 0 1 208.15 220.15 L 208.15 134.15 A 0 0 0 0 1 208.15 134.15 Z" stroke="#ffffff" stroke-width="0.3" opacity="1" filter="none" class="highcharts-point" tabindex="-1" role="img" aria-label="United Kingdom, 78.0495052762337. Annual." style="outline: currentcolor;"></path><path fill="#000533" d="M 222.15 135.15 L 231.15 135.15 A 0 0 0 0 1 231.15 135.15 L 231.15 220.15 A 0 0 0 0 1 231.15 220.15 L 222.15 220.15 A 0 0 0 0 1 222.15 220.15 L 222.15 135.15 A 0 0 0 0 1 222.15 135.15 Z" stroke="#ffffff" stroke-width="0.3" opacity="1" filter="none" class="highcharts-point" tabindex="-1" role="img" aria-label="Italy, 77.0888912689205. Annual." style="outline: currentcolor;"></path><path fill="#000533" d="M 236.15 139.15 L 245.15 139.15 A 0 0 0 0 1 245.15 139.15 L 245.15 220.15 A 0 0 0 0 1 245.15 220.15 L 236.15 220.15 A 0 0 0 0 1 236.15 220.15 L 236.15 139.15 A 0 0 0 0 1 236.15 139.15 Z" stroke="#ffffff" stroke-width="0.3" opacity="1" filter="none" class="highcharts-point" tabindex="-1" role="img" aria-label="Canada, 73.4396235617393. Annual." style="outline: currentcolor;"></path><path fill="#000533" d="M 250.15 139.15 L 259.15 139.15 A 0 0 0 0 1 259.15 139.15 L 259.15 220.15 A 0 0 0 0 1 259.15 220.15 L 250.15 220.15 A 0 0 0 0 1 250.15 220.15 L 250.15 139.15 A 0 0 0 0 1 250.15 139.15 Z" stroke="#ffffff" stroke-width="0.3" opacity="1" filter="none" class="highcharts-point" tabindex="-1" role="img" aria-label="Spain, 73.4218980588618. Annual." style="outline: currentcolor;"></path><path fill="#48A7FF" d="M 263.15 142.15 L 272.15 142.15 A 0 0 0 0 1 272.15 142.15 L 272.15 220.15 A 0 0 0 0 1 272.15 220.15 L 263.15 220.15 A 0 0 0 0 1 263.15 220.15 L 263.15 142.15 A 0 0 0 0 1 263.15 142.15 Z" stroke="#ffffff" stroke-width="0.3" opacity="1" filter="none" class="highcharts-point" tabindex="-1" role="img" aria-label="OECD, 70.6159575060399. Annual." style="outline: currentcolor;"></path><path fill="#000533" d="M 277.15 148.15 L 286.15 148.15 A 0 0 0 0 1 286.15 148.15 L 286.15 220.15 A 0 0 0 0 1 286.15 220.15 L 277.15 220.15 A 0 0 0 0 1 277.15 220.15 L 277.15 148.15 A 0 0 0 0 1 277.15 148.15 Z" stroke="#ffffff" stroke-width="0.3" opacity="1" filter="none" class="highcharts-point" tabindex="-1" role="img" aria-label="Slovenia, 65.5006755983053. Annual." style="outline: currentcolor;"></path><path fill="#000533" d="M 291.15 153.15 L 300.15 153.15 A 0 0 0 0 1 300.15 153.15 L 300.15 220.15 A 0 0 0 0 1 300.15 220.15 L 291.15 220.15 A 0 0 0 0 1 291.15 220.15 L 291.15 153.15 A 0 0 0 0 1 291.15 153.15 Z" stroke="#ffffff" stroke-width="0.3" opacity="1" filter="none" class="highcharts-point" tabindex="-1" role="img" aria-label="Israel, 60.5115476834221. Annual." style="outline: currentcolor;"></path><path fill="#000533" d="M 305.15 153.15 L 314.15 153.15 A 0 0 0 0 1 314.15 153.15 L 314.15 220.15 A 0 0 0 0 1 314.15 220.15 L 305.15 220.15 A 0 0 0 0 1 305.15 220.15 L 305.15 153.15 A 0 0 0 0 1 305.15 153.15 Z" stroke="#ffffff" stroke-width="0.3" opacity="1" filter="none" class="highcharts-point" tabindex="-1" role="img" aria-label="Czechia, 60.4826975625065. Annual." style="outline: currentcolor;"></path><path fill="#000533" d="M 318.15 153.15 L 327.15 153.15 A 0 0 0 0 1 327.15 153.15 L 327.15 220.15 A 0 0 0 0 1 327.15 220.15 L 318.15 220.15 A 0 0 0 0 1 318.15 220.15 L 318.15 153.15 A 0 0 0 0 1 318.15 153.15 Z" stroke="#ffffff" stroke-width="0.3" opacity="1" filter="none" class="highcharts-point" tabindex="-1" role="img" aria-label="Lithuania, 60.3711030025339. Annual." style="outline: currentcolor;"></path><path fill="#000533" d="M 332.15 154.15 L 341.15 154.15 A 0 0 0 0 1 341.15 154.15 L 341.15 220.15 A 0 0 0 0 1 341.15 220.15 L 332.15 220.15 A 0 0 0 0 1 332.15 220.15 L 332.15 154.15 A 0 0 0 0 1 332.15 154.15 Z" stroke="#ffffff" stroke-width="0.3" opacity="1" filter="none" class="highcharts-point" tabindex="-1" role="img" aria-label="Slovak Rep., 60.1296541031136. Annual." style="outline: currentcolor;"></path><path fill="#000533" d="M 346.15 155.15 L 355.15 155.15 A 0 0 0 0 1 355.15 155.15 L 355.15 220.15 A 0 0 0 0 1 355.15 220.15 L 346.15 220.15 A 0 0 0 0 1 346.15 220.15 L 346.15 155.15 A 0 0 0 0 1 346.15 155.15 Z" stroke="#ffffff" stroke-width="0.3" opacity="1" filter="none" class="highcharts-point" tabindex="-1" role="img" aria-label="Portugal, 59.2463755710198. Annual." style="outline: currentcolor;"></path><path fill="#000533" d="M 359.15 158.15 L 368.15 158.15 A 0 0 0 0 1 368.15 158.15 L 368.15 220.15 A 0 0 0 0 1 368.15 220.15 L 359.15 220.15 A 0 0 0 0 1 359.15 220.15 L 359.15 158.15 A 0 0 0 0 1 359.15 158.15 Z" stroke="#ffffff" stroke-width="0.3" opacity="1" filter="none" class="highcharts-point" tabindex="-1" role="img" aria-label="Japan, 56.257024530029. Annual." style="outline: currentcolor;"></path><path fill="#000533" d="M 373.15 158.15 L 382.15 158.15 A 0 0 0 0 1 382.15 158.15 L 382.15 220.15 A 0 0 0 0 1 382.15 220.15 L 373.15 220.15 A 0 0 0 0 1 373.15 220.15 L 373.15 158.15 A 0 0 0 0 1 373.15 158.15 Z" stroke="#ffffff" stroke-width="0.3" opacity="1" filter="none" class="highcharts-point" tabindex="-1" role="img" aria-label="Latvia, 55.8816291103229. Annual." style="outline: currentcolor;"></path><path fill="#000533" d="M 387.15 159.15 L 396.15 159.15 A 0 0 0 0 1 396.15 159.15 L 396.15 220.15 A 0 0 0 0 1 396.15 220.15 L 387.15 220.15 A 0 0 0 0 1 387.15 220.15 L 387.15 159.15 A 0 0 0 0 1 387.15 159.15 Z" stroke="#ffffff" stroke-width="0.3" opacity="1" filter="none" class="highcharts-point" tabindex="-1" role="img" aria-label="New Zealand, 55.4181142623918. Annual." style="outline: currentcolor;"></path><path fill="#000533" d="M 401.15 160.15 L 410.15 160.15 A 0 0 0 0 1 410.15 160.15 L 410.15 220.15 A 0 0 0 0 1 410.15 220.15 L 401.15 220.15 A 0 0 0 0 1 401.15 220.15 L 401.15 160.15 A 0 0 0 0 1 401.15 160.15 Z" stroke="#ffffff" stroke-width="0.3" opacity="1" filter="none" class="highcharts-point" tabindex="-1" role="img" aria-label="Hungary, 54.7382351165394. Annual." style="outline: currentcolor;"></path><path fill="#000533" d="M 414.15 160.15 L 423.15 160.15 A 0 0 0 0 1 423.15 160.15 L 423.15 220.15 A 0 0 0 0 1 423.15 220.15 L 414.15 220.15 A 0 0 0 0 1 414.15 220.15 L 414.15 160.15 A 0 0 0 0 1 414.15 160.15 Z" stroke="#ffffff" stroke-width="0.3" opacity="1" filter="none" class="highcharts-point" tabindex="-1" role="img" aria-label="Korea, 54.6397698899177. Annual." style="outline: currentcolor;"></path><path fill="#000533" d="M 428.15 160.15 L 437.15 160.15 A 0 0 0 0 1 437.15 160.15 L 437.15 220.15 A 0 0 0 0 1 437.15 220.15 L 428.15 220.15 A 0 0 0 0 1 428.15 220.15 L 428.15 160.15 A 0 0 0 0 1 428.15 160.15 Z" stroke="#ffffff" stroke-width="0.3" opacity="1" filter="none" class="highcharts-point" tabindex="-1" role="img" aria-label="Poland, 54.2772204787475. Annual." style="outline: currentcolor;"></path><path fill="#000533" d="M 442.15 161.15 L 451.15 161.15 A 0 0 0 0 1 451.15 161.15 L 451.15 220.15 A 0 0 0 0 1 451.15 220.15 L 442.15 220.15 A 0 0 0 0 1 442.15 220.15 L 442.15 161.15 A 0 0 0 0 1 442.15 161.15 Z" stroke="#ffffff" stroke-width="0.3" opacity="1" filter="none" class="highcharts-point" tabindex="-1" role="img" aria-label="Estonia, 53.3794363164276. Annual." style="outline: currentcolor;"></path><path fill="#000533" d="M 456.15 171.15 L 465.15 171.15 A 0 0 0 0 1 465.15 171.15 L 465.15 220.15 A 0 0 0 0 1 465.15 220.15 L 456.15 220.15 A 0 0 0 0 1 456.15 220.15 L 456.15 171.15 A 0 0 0 0 1 456.15 171.15 Z" stroke="#ffffff" stroke-width="0.3" opacity="1" filter="none" class="highcharts-point" tabindex="-1" role="img" aria-label="Greece, 44.7845213969264. Annual." style="outline: currentcolor;"></path><path fill="#000533" d="M 469.15 180.15 L 478.15 180.15 A 0 0 0 0 1 478.15 180.15 L 478.15 220.15 A 0 0 0 0 1 478.15 220.15 L 469.15 220.15 A 0 0 0 0 1 469.15 220.15 L 469.15 180.15 A 0 0 0 0 1 469.15 180.15 Z" stroke="#ffffff" stroke-width="0.3" opacity="1" filter="none" class="highcharts-point" tabindex="-1" role="img" aria-label="Chile, 36.5070528753659. Annual." style="outline: currentcolor;"></path><path fill="#000533" d="M 483.15 185.15 L 492.15 185.15 A 0 0 0 0 1 492.15 185.15 L 492.15 220.15 A 0 0 0 0 1 492.15 220.15 L 483.15 220.15 A 0 0 0 0 1 483.15 220.15 L 483.15 185.15 A 0 0 0 0 1 483.15 185.15 Z" stroke="#ffffff" stroke-width="0.3" opacity="1" filter="none" class="highcharts-point" tabindex="-1" role="img" aria-label="Costa Rica, 31.8367630694602. Annual." style="outline: currentcolor;"></path><path fill="#000533" d="M 497.15 192.15 L 506.15 192.15 A 0 0 0 0 1 506.15 192.15 L 506.15 220.15 A 0 0 0 0 1 506.15 220.15 L 497.15 220.15 A 0 0 0 0 1 497.15 220.15 L 497.15 192.15 A 0 0 0 0 1 497.15 192.15 Z" stroke="#ffffff" stroke-width="0.3" opacity="1" filter="none" class="highcharts-point" tabindex="-1" role="img" aria-label="Mexico, 24.9715321074511. Annual." style="outline: currentcolor;"></path><path fill="#000533" d="M 511.15 196.15 L 520.15 196.15 A 0 0 0 0 1 520.15 196.15 L 520.15 220.15 A 0 0 0 0 1 520.15 220.15 L 511.15 220.15 A 0 0 0 0 1 511.15 220.15 L 511.15 196.15 A 0 0 0 0 1 511.15 196.15 Z" stroke="#ffffff" stroke-width="0.3" opacity="1" filter="none" class="highcharts-point" tabindex="-1" role="img" aria-label="Colombia, 21.348914104812. Annual." style="outline: currentcolor;"></path></g><g class="highcharts-markers highcharts-series-0 highcharts-column-series" data-z-index="0.1" opacity="1" transform="translate(54,68) scale(1 1)" clip-path="none" aria-hidden="true"></g></g><text x="0" text-anchor="start" class="highcharts-title" data-z-index="4" style="font-size: 18px; color: rgb(16, 29, 64); font-weight: bold; fill: rgb(16, 29, 64);" text-align="left" y="14" transform-origin="0 21" transform="translate(0,0) scale(1 1)" aria-hidden="true"><tspan>GDP per hour worked</tspan></text><text x="0" text-anchor="start" class="highcharts-subtitle" data-z-index="4" style="color: rgb(88, 97, 121); font-size: 17px; fill: rgb(88, 97, 121);" text-align="left" y="43" transform-origin="0 20" transform="translate(0,0) scale(1 1)" aria-hidden="true"><tspan>US dollars per hour, PPP converted, current prices, 2023</tspan></text><text x="0" text-anchor="start" class="highcharts-caption" data-z-index="4" text-align="left" y="412" transform-origin="0 15" transform="translate(0,0) scale(1 1)" style="color: rgb(102, 102, 102); font-size: 0.8em; fill: rgb(102, 102, 102);" aria-hidden="true"></text><g class="highcharts-axis-labels highcharts-xaxis-labels" data-z-index="7" aria-hidden="true"><text x="64.40395495856474" style="color: rgb(88, 97, 121); cursor: default; font-size: 16px; fill: rgb(88, 97, 121);" text-anchor="end" transform="translate(0,0) rotate(-45 64.40395495856474 314)" y="314" opacity="1">Ireland</text><text x="105.61448127435274" style="color: rgb(88, 97, 121); cursor: default; font-size: 16px; fill: rgb(88, 97, 121);" text-anchor="end" transform="translate(0,0) rotate(-45 105.61448127435274 314)" y="314" opacity="1">Belgium</text><text x="146.82500759014275" style="color: rgb(88, 97, 121); cursor: default; font-size: 16px; fill: rgb(88, 97, 121);" text-anchor="end" transform="translate(0,0) rotate(-45 146.82500759014275 314)" y="314" opacity="1">United States</text><text x="188.03553390593274" style="color: rgb(88, 97, 121); cursor: default; font-size: 16px; fill: rgb(88, 97, 121);" text-anchor="end" transform="translate(0,0) rotate(-45 188.03553390593274 314)" y="314" opacity="1">Netherlands</text><text x="229.24606022172273" style="color: rgb(88, 97, 121); cursor: default; font-size: 16px; fill: rgb(88, 97, 121);" text-anchor="end" transform="translate(0,0) rotate(-45 229.24606022172273 314)" y="314" opacity="1">France</text><text x="270.4565865375127" style="color: rgb(88, 97, 121); cursor: default; font-size: 16px; fill: rgb(88, 97, 121);" text-anchor="end" transform="translate(0,0) rotate(-45 270.4565865375127 314)" y="314" opacity="1">United Kingdom</text><text x="311.6671128533027" style="color: rgb(88, 97, 121); cursor: default; font-size: 16px; fill: rgb(88, 97, 121);" text-anchor="end" transform="translate(0,0) rotate(-45 311.6671128533027 314)" y="314" opacity="1">Spain</text><text x="352.87763916909273" style="color: rgb(88, 97, 121); cursor: default; font-size: 16px; fill: rgb(88, 97, 121);" text-anchor="end" transform="translate(0,0) rotate(-45 352.87763916909273 314)" y="314" opacity="1">Israel</text><text x="394.0881654848827" style="color: rgb(88, 97, 121); cursor: default; font-size: 16px; fill: rgb(88, 97, 121);" text-anchor="end" transform="translate(0,0) rotate(-45 394.0881654848827 314)" y="314" opacity="1">Slovak Rep.</text><text x="435.2986918006727" style="color: rgb(88, 97, 121); cursor: default; font-size: 16px; fill: rgb(88, 97, 121);" text-anchor="end" transform="translate(0,0) rotate(-45 435.2986918006727 314)" y="314" opacity="1">Latvia</text><text x="476.5092181164627" style="color: rgb(88, 97, 121); cursor: default; font-size: 16px; fill: rgb(88, 97, 121);" text-anchor="end" transform="translate(0,0) rotate(-45 476.5092181164627 314)" y="314" opacity="1">Korea</text><text x="517.7197444322528" style="color: rgb(88, 97, 121); cursor: default; font-size: 16px; fill: rgb(88, 97, 121);" text-anchor="end" transform="translate(0,0) rotate(-45 517.7197444322528 314)" y="314" opacity="1">Greece</text><text x="558.9302707480427" style="color: rgb(88, 97, 121); cursor: default; font-size: 16px; fill: rgb(88, 97, 121);" text-anchor="end" transform="translate(0,0) rotate(-45 558.9302707480427 314)" y="314" opacity="1">Mexico</text></g><g class="highcharts-axis-labels highcharts-yaxis-labels" data-z-index="7" aria-hidden="true"><text x="0" style="color: rgb(88, 97, 121); cursor: default; font-size: 16px; fill: rgb(88, 97, 121);" text-anchor="start" transform="translate(0,0)" y="284" opacity="1">0</text><text x="0" style="color: rgb(88, 97, 121); cursor: default; font-size: 16px; fill: rgb(88, 97, 121);" text-anchor="start" transform="translate(0,0)" y="229" opacity="1">50</text><text x="0" style="color: rgb(88, 97, 121); cursor: default; font-size: 16px; fill: rgb(88, 97, 121);" text-anchor="start" transform="translate(0,0)" y="174" opacity="1">100</text><text x="0" style="color: rgb(88, 97, 121); cursor: default; font-size: 16px; fill: rgb(88, 97, 121);" text-anchor="start" transform="translate(0,0)" y="119" opacity="1">150</text><text x="0" style="color: rgb(88, 97, 121); cursor: default; font-size: 16px; fill: rgb(88, 97, 121);" text-anchor="start" transform="translate(0,0)" y="64" opacity="1">200</text></g><g class="highcharts-control-points" data-z-index="99" clip-path="url(#highcharts-wqmkq5y-177-)" aria-hidden="true"></g></svg>